<?xml version="1.0" encoding="UTF-8"?> <svg xmlns="http://www.w3.org/2000/svg" id="Слой_1" data-name="Слой 1" viewBox="0 0 283.46 141.73"> <defs> <style>.cls-1{fill:#fff;}.cls-2{fill:#ffeb00;}</style> </defs> <polygon class="cls-1" points="132.85 37.81 142.45 37.81 142.45 95.44 161.66 95.44 161.66 105.04 132.85 105.04 132.85 37.81"></polygon> <path class="cls-1" d="M44,57V51.74A14.41,14.41,0,0,0,29.6,37.33h0A14.41,14.41,0,0,0,15.2,51.74v2.88c0,7.15,2.66,12.25,10.85,19.49,6.4,5.63,8.36,8.94,8.36,14.12v2.88a4.81,4.81,0,0,1-4.81,4.81h0a4.8,4.8,0,0,1-4.8-4.81V85.83H15.2v5.28a14.41,14.41,0,0,0,14.4,14.41h0A14.41,14.41,0,0,0,44,91.11V88.23c0-7.8-2.58-12.81-10.76-20.08-6.4-5.64-8.45-9-8.45-13.53V51.74a4.81,4.81,0,1,1,9.61,0V57Z"></path> <path class="cls-1" d="M53.61,51.74V91.11A14.41,14.41,0,0,0,68,105.52h0A14.41,14.41,0,0,0,82.43,91.11V85.83H72.82v5.28A4.8,4.8,0,0,1,68,95.92h0a4.8,4.8,0,0,1-4.8-4.81V51.74A4.8,4.8,0,0,1,68,46.93h0a4.8,4.8,0,0,1,4.8,4.81V57h9.61V51.74A14.41,14.41,0,0,0,68,37.33h0A14.41,14.41,0,0,0,53.61,51.74Z"></path> <polygon class="cls-1" points="168.87 37.81 197.68 37.81 197.68 47.42 178.47 47.42 178.47 66.62 188.07 66.62 188.07 76.23 178.47 76.23 178.47 95.44 197.68 95.44 197.68 105.04 168.87 105.06 168.87 37.81"></polygon> <polygon class="cls-1" points="99.36 105.04 106.44 52.28 113.52 105.04 123.21 105.04 113.77 37.81 99.11 37.81 89.66 105.04 99.36 105.04"></polygon> <polygon class="cls-2" points="228.41 71.42 197.68 124.25 216.89 124.25 247.62 71.42 216.89 18.6 197.68 18.6 228.41 71.42"></polygon> <polygon class="cls-1" points="250.42 66.59 267.16 37.81 247.95 37.81 240.81 50.08 250.42 66.59"></polygon> <polygon class="cls-1" points="240.81 92.77 247.95 105.04 267.16 105.04 250.42 76.26 240.81 92.77"></polygon> </svg> 